HIERARCHY
ROOT pelvis
{
  OFFSET 0 100 0
  CHANNELS 6 Xposition Yposition Zposition Zrotation Xrotation Yrotation
  JOINT pelvis_right_femur
  {
    OFFSET -10.78128 -3.44521 -0.5502486
    CHANNELS 3 Zrotation Xrotation Yrotation
    JOINT right_femur_tibia
    {
      OFFSET -0.8047443 -44.0398 -0.1307829
      CHANNELS 3 Zrotation Xrotation Yrotation
      JOINT right_tibia_foot
      {
        OFFSET 3.006224 -47.83518 -5
        CHANNELS 3 Zrotation Xrotation Yrotation
        End Site
        {
          OFFSET 0 -5 15
        }
      }
    }
  }
  JOINT pelvis_left_femur
  {
    OFFSET 10.78128 -3.44521 -0.5502486
    CHANNELS 3 Zrotation Xrotation Yrotation
    JOINT left_femur_tibia
    {
      OFFSET 0.8047443 -44.0398 -0.1307829
      CHANNELS 3 Zrotation Xrotation Yrotation
      JOINT left_tibia_foot
      {
        OFFSET -4.370144 -48.10324 -4.275266
        CHANNELS 3 Zrotation Xrotation Yrotation
        End Site
        {
          OFFSET 0 -5 15
        }
      }
    }
  }
  JOINT pelvis_spine1
  {
    OFFSET 0 6.468898 -3.129235
    CHANNELS 3 Zrotation Xrotation Yrotation
    JOINT spine1
    {
      OFFSET 0 23.15396 4.99043
      CHANNELS 3 Zrotation Xrotation Yrotation
      JOINT spine2
      {
        OFFSET 0 20.79997 -5.064912
        CHANNELS 3 Zrotation Xrotation Yrotation
        JOINT neck
        {
          OFFSET 0 14.38658 9.616178
          CHANNELS 3 Zrotation Xrotation Yrotation
          End Site
          {
            OFFSET 0 20 0
          }
        }
      }
      JOINT right_manubrium
      {
        OFFSET -5.722621 16.35077 3.967754
        CHANNELS 3 Zrotation Xrotation Yrotation
        JOINT right_clavicle
        {
          OFFSET -13.16364 1.694482 -4.693211
          CHANNELS 3 Zrotation Xrotation Yrotation
          JOINT right_humerus
          {
            OFFSET -28.5034 -0.3100689 -2.792744
            CHANNELS 3 Zrotation Xrotation Yrotation
            JOINT right_radius
            {
              OFFSET -25.15693 0.02248979 -1.271978
              CHANNELS 3 Zrotation Xrotation Yrotation
              End Site
              {
                OFFSET -15 0 0
              }
            }
          }
        }
      }
      JOINT left_manubrium
      {
        OFFSET 5.722621 16.35077 3.967754
        CHANNELS 3 Zrotation Xrotation Yrotation
        JOINT left_clavicle
        {
          OFFSET 13.16364 1.694482 -4.693211
          CHANNELS 3 Zrotation Xrotation Yrotation
          JOINT left_humerus
          {
            OFFSET 29.39168 -1.063119 -2.237045
            CHANNELS 3 Zrotation Xrotation Yrotation
            JOINT left_radius
            {
              OFFSET 24.59957 -0.9528479 0.9047498
              CHANNELS 3 Zrotation Xrotation Yrotation
              End Site
              {
                OFFSET 15 -0 -0
              }
            }
          }
        }
      }
    }
  }
}
MOTION
Frames: 9
Frame Time: 0.0416666666667
0 103.5113 0 1.398566 -3.212748 0.08450188 1.403925 -11.36307 7.165356 -0 40.33815 -0 -5.835644 -16.26336 -3.314121 -6.677585 12.0096 -24.34678 -0 5.815395 -0 1.262516 -18.22699 24.17256 -1.369384 -1.623184 3.797332 0.6018038 6.468059 -7.116498 1.554429 22.879 7.794068 5.098537 -23.54988 8.698615 4.930518 -18.63533 9.87143 87.75397 35.71188 -22.25032 -0 0 16.78447 -6.934976 7.261867 2.182127 6.672331 -20.31683 -2.503562 -100.4193 43.10779 27.67426 0 0 -24.89439 -9.380233 18.1627 27.02196
0.1881842 103.7813 1.323254 0.6456065 -2.618487 -0.0434917 2.516145 -13.64249 8.340476 -0 42.1135 -0 -5.894838 -15.73314 -3.954716 -6.120834 11.76879 -24.31797 -0 6.849523 -0 -0.0481483 -19.1938 23.8541 -1.357294 -1.599288 3.740042 0.6443328 6.487628 -7.15371 1.530326 22.87734 7.830868 5.104545 -23.52606 8.694445 4.965883 -18.53734 9.896447 87.85335 35.7512 -22.38846 -0 0 16.56992 -7.063043 7.399943 2.244576 6.657394 -20.36108 -2.551578 -100.2113 42.96326 27.42863 0 0 -24.9093 -9.34794 18.15444 26.97218
0.3771457 103.9321 2.896472 -0.09819988 -1.868162 -0.1787348 3.791216 -18.08808 7.922802 -0 39.78513 -0 -6.570019 -13.48613 -3.98607 -5.571047 11.95845 -23.07088 -0 7.208618 -0 -0.1831807 -20.53451 22.755 -1.465017 -1.251965 3.913879 0.9441842 6.821264 -7.125543 1.295908 22.79762 7.824448 4.844333 -23.29334 8.405265 5.213702 -18.2272 10.38443 87.27378 36.76543 -21.33722 -0 0 15.49835 -9.244934 9.024866 3.970375 5.934537 -20.14839 -2.569721 -98.28149 40.41994 26.21131 0 0 -23.85055 -8.214074 17.47466 25.59747
0.5695448 103.9103 4.696026 -0.5538232 -0.8717492 -0.2734589 4.777176 -22.17373 7.784823 -0 36.56745 -0 -6.68821 -12.10758 -4.073926 -5.300896 12.19004 -22.076 -0 7.00195 -0 0.2234619 -21.67867 21.93836 -1.494419 -1.042972 3.92895 1.128773 7.059226 -7.167429 1.145508 22.73139 7.888198 4.744428 -23.07644 8.244558 5.382677 -17.91542 10.65883 87.14222 37.29926 -21.0363 -0 0 14.63983 -10.70983 10.10585 4.988625 5.599356 -20.16508 -2.672963 -96.96774 38.80463 25.16153 0 0 -23.42477 -7.518983 17.0686 24.72799
0.7648504 103.605 6.843384 -0.7012253 0.3341213 -0.2729611 5.33255 -26.24643 7.137842 -0 31.27983 -0 -6.572057 -10.63072 -3.90145 -5.303586 12.59532 -20.89453 -0 6.423251 -0 1.079581 -22.78804 20.97259 -1.519277 -0.8666601 3.93648 1.291976 7.286191 -7.216272 1.017181 22.65337 7.938116 4.652303 -22.87333 8.102444 5.525841 -17.63834 10.89397 87.03694 37.67962 -20.80052 -0 0 13.90356 -12.01557 11.03042 5.908043 5.320826 -20.19269 -2.777954 -95.82471 37.34361 24.22349 0 0 -23.08502 -6.892741 16.64054 23.93729
0.9580477 103.0192 9.410446 -0.6913434 1.734447 -0.1479801 5.686515 -30.07362 6.482791 -0 25.35732 -0 -6.240408 -9.205846 -3.645266 -5.467948 13.10041 -19.81262 -0 6.042985 -0 2.060672 -23.75113 20.05361 -1.531533 -0.7266232 3.945506 1.39994 7.491248 -7.256263 0.9176077 22.58114 7.993186 4.596997 -22.66489 7.989813 5.633319 -17.40441 11.07272 86.98646 37.97494 -20.65518 -0 0 13.29853 -13.17992 11.82813 6.664289 5.137177 -20.26107 -2.879026 -94.87508 36.11254 23.40298 0 0 -22.88064 -6.352062 16.2875 23.25347
1.141248 102.2263 12.49172 -0.6790453 3.138882 0.1301929 5.989814 -33.41723 5.830783 -0 19.81786 -0 -5.976166 -7.530431 -3.26066 -5.652707 13.70818 -18.84817 -0 6.435451 -0 2.837045 -24.368 19.11587 -1.542227 -0.610165 3.979797 1.464532 7.68458 -7.27621 0.8395728 22.51233 8.03841 4.555458 -22.45499 7.891899 5.711411 -17.22647 11.2187 86.92139 38.21761 -20.49249 -0 0 12.83043 -14.26284 12.53518 7.335787 5.000664 -20.33307 -2.962278 -94.07435 35.022 22.7148 0 0 -22.72473 -5.857146 15.96638 22.63156
1.306053 101.3809 16.1849 -0.847361 4.356612 0.5883453 6.453321 -35.91256 5.300812 -0 15.80462 -0 -6.010365 -5.547468 -2.72273 -5.686809 14.35577 -18.08243 -0 8.129652 -0 2.921091 -24.37836 18.02875 -1.551649 -0.5122547 4.043948 1.485653 7.869566 -7.272392 0.7802994 22.44945 8.076859 4.526812 -22.23816 7.807061 5.762931 -17.10239 11.33772 86.83481 38.43305 -20.29654 -0 0 12.48592 -15.30192 13.18277 7.941021 4.903408 -20.40714 -3.026782 -93.39793 34.04668 22.14662 0 0 -22.6006 -5.397151 15.68231 22.06073
1.446102 100.6843 20.58066 -1.336388 5.131531 1.225911 7.175476 -37.00539 4.845226 -0 14.07175 -0 -6.50834 -3.396078 -1.990656 -5.398369 14.93016 -17.47644 -0 11.55338 -0 1.67317 -23.44986 16.48795 -1.561115 -0.4283992 4.138601 1.470071 8.049692 -7.245326 0.736404 22.39153 8.108016 4.505337 -22.01496 7.732823 5.79184 -17.0282 11.43707 86.71845 38.62798 -20.0539 -0 0 12.25128 -16.31853 13.78834 8.50279 4.832699 -20.4767 -3.073103 -92.82187 33.15699 21.68604 0 0 -22.48766 -4.962616 15.42335 21.52979
